#!OML:ASF F:\VICON\USERDATA\INSTALL\rory3\rory3.ASF
:FULLY-SPECIFIED
:DEGREES
121
root 1.67798 17.1364 36.4501 2.10437 -2.10382 1.7886
lowerback 17.2183 -0.311014 -5.68913
upperback 2.11519 -1.6935 -2.71214
thorax -7.30349 -0.696068 0.707144
lowerneck -3.57731 0.00510463 -3.52113
upperneck -11.5409 0.522908 5.66189
head -3.13803 0.23192 2.47565
rclavicle 1.17283e-014 2.54444e-014
rhumerus -49.4053 10.051 -91.1635
rradius 78.0789
rwrist -19.1205
rhand -35.1309 26.292
rfingers 7.12502
rthumb -8.27111 -3.52604
lclavicle 1.17283e-014 2.54444e-014
lhumerus -19.0323 -16.9273 81.8495
lradius 111.485
lwrist 29.34
lhand -36.9415 11.7007
lfingers 7.12502
lthumb -10.0182 41.4422
rfemur -28.1854 -5.94278 17.6721
rtibia 108.125
rfoot 19.788 -7.7564
rtoes 25.7239
lfemur -10.8616 -3.30223 -26.3051
ltibia 43.3435
lfoot -20.0989 2.27404
ltoes -26.7645
122
root 1.67068 17.1881 36.9374 1.63633 -2.05232 2.62133
lowerback 17.6524 -0.537117 -6.58166
upperback 2.03266 -2.21178 -2.82795
thorax -7.57626 -0.911935 1.2114
lowerneck -3.74155 0.23262 -3.29272
upperneck -10.814 0.762763 5.18168
head -2.86279 0.361224 2.25506
rclavicle -1.59028e-014 -2.54444e-014
rhumerus -50.347 10.3436 -91.1013
rradius 77.5739
rwrist -18.8449
rhand -34.7055 27.5896
rfingers 7.12502
rthumb -7.86051 -2.24427
lclavicle -1.59028e-014 -2.54444e-014
lhumerus -18.2647 -16.8138 81.7077
lradius 112.512
lwrist 28.9907
lhand -35.9252 12.4813
lfingers 7.12502
lthumb -9.03761 42.2677
rfemur -29.7242 -5.98922 16.778
rtibia 107.138
rfoot 19.101 -6.55486
rtoes 23.003
lfemur -7.78409 -3.46739 -27.443
ltibia 41.915
lfoot -18.5297 2.06398
ltoes -26.9936
123
root 1.66757 17.2458 37.4346 1.7795 -1.79872 3.05415
lowerback 17.3348 -0.945725 -6.94712
upperback 1.88135 -2.79832 -2.82261
thorax -7.5097 -1.18284 1.55009
lowerneck -3.82333 0.57543 -3.19505
upperneck -10.3855 1.17509 4.75124
head -2.71537 0.576878 2.08196
rclavicle -1.47101e-014 -1.43125e-014
rhumerus -51.0784 10.6154 -90.9122
rradius 77.1601
rwrist -18.6478
rhand -34.8127 27.3092
rfingers 7.12502
rthumb -7.96399 -2.52078
lclavicle -1.47101e-014 -1.43125e-014
lhumerus -17.5032 -16.8298 81.5728
lradius 113.417
lwrist 29.213
lhand -35.8007 11.6502
lfingers 7.12502
lthumb -8.91746 41.4417
rfemur -31.6431 -6.13729 16.4371
rtibia 105.68
rfoot 17.0008 -5.23561
rtoes 16.6505
lfemur -5.43618 -3.69554 -28.0422
ltibia 40.436
lfoot -16.9552 1.94319
ltoes -28.5111
124
root 1.63208 17.3411 37.9499 1.8425 -1.90184 3.10224
lowerback 16.8589 -1.1703 -7.46522
upperback 1.88014 -3.12622 -2.60805
thorax -7.18378 -1.33494 2.12705
lowerneck -3.87491 0.888467 -3.04453
upperneck -10.2377 1.55061 4.25385
head -2.66317 0.771538 1.88308
rclavicle -1.53064e-014 -7.15625e-015
rhumerus -51.7454 10.63 -90.5204
rradius 77.2597
rwrist -18.328
rhand -34.9635 26.0835
rfingers 7.12502
rthumb -8.10957 -3.74086
lclavicle -1.53064e-014 -7.15625e-015
lhumerus -16.6072 -16.7024 81.4561
lradius 114.439
lwrist 30.7524
lhand -35.8323 10.5096
lfingers 7.12502
lthumb -8.94799 40.2998
rfemur -33.8772 -5.66638 17.0357
rtibia 103.605
rfoot 16.3303 -3.82582
rtoes 12.463
lfemur -3.08095 -3.49337 -28.0366
ltibia 38.9206
lfoot -15.1131 1.54297
ltoes -31.1686
125
root 1.61038 17.4149 38.4601 1.82482 -1.9482 2.78333
lowerback 16.2625 -1.48526 -7.32169
upperback 1.94223 -3.43216 -2.35365
thorax -6.75242 -1.50273 2.35899
lowerneck -3.74278 1.11133 -2.98904
upperneck -10.1767 1.81263 3.85555
head -2.66954 0.908233 1.73748
rclavicle 3.77691e-015 -1.43125e-014
rhumerus -52.5525 10.4865 -90.0537
rradius 77.6737
rwrist -17.3396
rhand -34.9942 24.7214
rfingers 7.12502
rthumb -8.13914 -5.10188
lclavicle 3.77691e-015 -1.43125e-014
lhumerus -15.9204 -16.5554 81.4663
lradius 115.426
lwrist 32.1705
lhand -35.769 8.99721
lfingers 7.12502
lthumb -8.88694 38.7901
rfemur -35.0019 -4.99898 17.7663
rtibia 101.171
rfoot 15.6492 -3.14037
rtoes 12.5925
lfemur -0.780143 -3.34286 -27.6639
ltibia 37.5363
lfoot -12.8005 0.869461
ltoes -33.0671
126
root 1.59604 17.5034 38.9803 1.73257 -1.92545 2.63328
lowerback 16.294 -1.85639 -7.20317
upperback 1.66809 -3.90964 -2.19666
thorax -7.01986 -1.71902 2.56692
lowerneck -3.66455 1.34791 -2.76427
upperneck -9.73779 2.08358 3.45293
head -2.53535 1.04504 1.55874
rclavicle -4.17448e-015 1.35174e-014
rhumerus -53.6372 10.5613 -89.8216
rradius 77.6745
rwrist -16.0251
rhand -34.4061 24.1053
rfingers 7.12502
rthumb -7.57158 -5.73916
lclavicle -4.17448e-015 1.35174e-014
lhumerus -16.2426 -17.0234 81.6933
lradius 116.617
lwrist 31.6798
lhand -37.3684 10.2101
lfingers 7.12502
lthumb -10.4301 39.9314
rfemur -35.719 -4.43017 18.1752
rtibia 98.3579
rfoot 14.6392 -2.44079
rtoes 10.1357
lfemur 1.63559 -3.05871 -27.4089
ltibia 35.9793
lfoot -10.291 -0.428385
ltoes -32.8619
127
root 1.57064 17.5876 39.5214 1.6288 -2.08732 2.86589
lowerback 15.6863 -2.12318 -7.61506
upperback 1.75139 -4.26484 -2.14206
thorax -6.5271 -1.9028 2.89047
lowerneck -4.15622 1.51599 -2.4985
upperneck -9.18542 2.26961 3.01591
head -2.25825 1.14341 1.36718
rclavicle 5.32743e-014 2.3059e-014
rhumerus -53.9511 10.7454 -89.5731
rradius 77.2339
rwrist -14.7696
rhand -33.8472 24.5885
rfingers 7.12502
rthumb -7.03209 -5.27465
lclavicle 5.32743e-014 2.3059e-014
lhumerus -15.5575 -15.5688 81.0862
lradius 117.943
lwrist 38.3896
lhand -34.8757 11.0246
lfingers 7.12502
lthumb -8.02478 40.8523
rfemur -36.5381 -3.83891 18.2067
rtibia 95.3835
rfoot 13.35 -1.49705
rtoes 7.39071
lfemur 4.00426 -2.60462 -27.4777
ltibia 34.4097
lfoot -7.64102 -1.63246
ltoes -32.7293
128
root 1.55642 17.6737 40.0494 1.73944 -1.91781 3.06384
lowerback 15.2 -2.51574 -7.72056
upperback 1.61382 -4.75632 -2.06756
thorax -6.34234 -2.14406 3.09627
lowerneck -4.16087 1.64749 -2.64914
upperneck -8.82089 2.43637 2.94557
head -2.14403 1.23315 1.36831
rclavicle -9.54166e-015 3.18055e-015
rhumerus -54.5797 10.7013 -89.2637
rradius 77.0087
rwrist -13.5898
rhand -33.3946 24.5019
rfingers 7.12502
rthumb -6.59519 -5.37537
lclavicle -9.54166e-015 3.18055e-015
lhumerus -15.8898 -17.2346 81.6456
lradius 118.152
lwrist 31.6578
lhand -37.2681 8.08531
lfingers 7.12502
lthumb -10.3332 37.8114
rfemur -37.3588 -3.68899 18.2296
rtibia 92.0736
rfoot 11.9781 -0.63666
rtoes 4.96372
lfemur 6.19923 -2.57046 -27.5045
ltibia 32.488
lfoot -3.90148 -2.79841
ltoes -31.3862
129
root 1.53467 17.7681 40.571 1.91077 -1.90512 2.87008
lowerback 14.8284 -2.8275 -7.56588
upperback 1.35191 -5.11112 -1.87892
thorax -6.37717 -2.31212 3.26026
lowerneck -3.70629 1.78339 -3.05467
upperneck -8.72444 2.63513 3.2711
head -2.21321 1.33473 1.54046
rclavicle -1.96797e-014 3.18055e-014
rhumerus -55.3919 10.4764 -88.9296
rradius 77.0975
rwrist -12.2992
rhand -33.3424 23.8322
rfingers 7.12502
rthumb -6.54474 -6.04664
lclavicle -1.96797e-014 3.18055e-014
lhumerus -16.0931 -17.4387 81.8505
lradius 119.027
lwrist 32.5434
lhand -37.2438 6.43231
lfingers 7.12502
lthumb -10.3098 36.1596
rfemur -38.0738 -3.25249 18.7541
rtibia 88.4063
rfoot 10.6672 -0.302656
rtoes 3.00084
lfemur 8.17334 -2.35637 -27.0185
ltibia 30.5135
lfoot 0.505402 -3.63328
ltoes -30.1273
130
root 1.49047 17.8719 41.1158 1.19843 -2.13218 2.62765
lowerback 16.2365 -2.97993 -7.91444
upperback 0.550622 -5.53823 -1.52588
thorax -7.91713 -2.40535 4.04862
lowerneck -3.33923 2.01617 -2.97811
upperneck -7.37467 2.89232 2.94401
head -1.83668 1.46585 1.41369
rclavicle -6.95746e-015 7.95139e-015
rhumerus -57.4186 10.6713 -88.7349
rradius 77.1794
rwrist -11.0391
rhand -33.384 24.7981
rfingers 7.12502
rthumb -6.5849 -5.07948
lclavicle -6.95746e-015 7.95139e-015
lhumerus -17.9432 -17.6849 82.5679
lradius 120.086
lwrist 32.6711
lhand -37.5819 6.42501
lfingers 7.12502
lthumb -10.6359 36.1358
rfemur -37.4042 -2.3957 19.2995
rtibia 84.3522
rfoot 9.24507 -0.487326
rtoes 2.29394
lfemur 11.1821 -1.80852 -26.3618
ltibia 28.3376
lfoot 4.84766 -3.8591
ltoes -28.3697
131
root 1.5109 17.95 41.6421 1.8835 -4.0061 2.4709
lowerback 14.2499 -2.76897 -7.39688
upperback 0.858208 -4.96372 -1.53955
thorax -6.58536 -2.22274 3.47943
lowerneck -3.91032 2.14176 -3.17112
upperneck -7.52483 3.08471 3.04181
head -1.79931 1.56902 1.4825
rclavicle -2.78299e-014 -1.27222e-014
rhumerus -56.8557 10.3037 -88.1757
rradius 76.5534
rwrist -9.61428
rhand -33.7021 28.3626
rfingers 7.12502
rthumb -6.89196 -1.50525
lclavicle -2.78299e-014 -1.27222e-014
lhumerus -16.9065 -18.1422 82.3477
lradius 120.71
lwrist 32.6623
lhand -37.8851 6.5701
lfingers 7.12502
lthumb -10.9285 36.2657
rfemur -38.9244 -0.451101 19.3631
rtibia 80.2967
rfoot 8.67928 -0.0664895
rtoes 1.01159
lfemur 12.5536 -0.968577 -26.5943
ltibia 26.0505
lfoot 9.28887 -2.26325
ltoes -25.8125
132
root 1.4986 18.0333 42.1873 1.88844 -4.7011 2.21866
lowerback 14.3549 -2.84073 -7.20993
upperback 0.333256 -5.05485 -1.30498
thorax -7.19475 -2.2299 3.66992
lowerneck -4.24033 2.24218 -3.10125
upperneck -6.34738 3.19482 2.82251
head -1.36268 1.62792 1.40338
rclavicle 7.55382e-015 4.77083e-015
rhumerus -58.0783 10.3444 -87.8663
rradius 76.5945
rwrist -8.85471
rhand -33.0712 28.6717
rfingers 7.12502
rthumb -6.28295 -1.21509
lclavicle 7.55382e-015 4.77083e-015
lhumerus -17.4824 -16.6625 82.2965
lradius 119.794
lwrist 27.407
lhand -35.2236 -0.190298
lfingers 7.12502
lthumb -8.36052 29.6242
rfemur -38.9221 0.523981 19.6943
rtibia 75.8829
rfoot 7.67487 -0.0572115
rtoes -0.341757
lfemur 14.9908 -1.22182 -26.5528
ltibia 23.3214
lfoot 14.2937 -0.616925
ltoes -21.184
